<?xml version="1.0" encoding="utf-8"?>
<!-- Generator: Adobe Illustrator 27.8.0, SVG Export Plug-In . SVG Version: 6.00 Build 0)  -->
<svg version="1.1" id="_1-Email" xmlns="http://www.w3.org/2000/svg" xmlns:xlink="http://www.w3.org/1999/xlink" x="0px" y="0px"
	 viewBox="0 0 32 32" style="enable-background:new 0 0 32 32;" xml:space="preserve">
<style type="text/css">
	.st0{fill:#3B5636;}
</style>
<path class="st0" d="M31.5,5.7c-0.4-1.1-1-2.2-1.9-3.1C28.1,1,25.9,0,23.5,0h-15C6.1,0,3.9,1,2.3,2.6c-0.8,0.9-1.4,2-1.8,3.1
	C0.2,6.6,0,7.5,0,8.5v15C0,28.2,3.8,32,8.5,32h15c4.7,0,8.5-3.8,8.5-8.5v-15C32,7.5,31.8,6.6,31.5,5.7z M8.5,3.5h15
	c1.2,0,2.4,0.4,3.2,1.2c0.3,0.2,0.3,0.6,0,0.8l-7.2,7.2c-0.9,0.9-2.2,1.5-3.5,1.5s-2.6-0.5-3.5-1.5L5.2,5.5C5,5.3,5,4.9,5.3,4.7
	C6.1,3.9,7.3,3.5,8.5,3.5z M23.5,28.5h-15c-2.8,0-5-2.2-5-5V10.1c0-0.5,0.6-0.7,1-0.4l5.5,5.5c1.7,1.7,3.8,2.5,6,2.5s4.3-0.8,6-2.5
	l5.5-5.5c0.4-0.4,1-0.1,1,0.4v13.4C28.5,26.3,26.3,28.5,23.5,28.5z"/>
</svg>
