<?xml version="1.0" encoding="utf-8"?>
<!-- Generator: Adobe Illustrator 27.8.0, SVG Export Plug-In . SVG Version: 6.00 Build 0)  -->
<svg version="1.1" id="Layer_2_00000092423171079292627080000004859850915436511156_"
	 xmlns="http://www.w3.org/2000/svg" xmlns:xlink="http://www.w3.org/1999/xlink" x="0px" y="0px" viewBox="0 0 128 127.9"
	 style="enable-background:new 0 0 128 127.9;" xml:space="preserve">
<style type="text/css">
	.st0{fill:#3B5636;}
</style>
<g id="Layer_1-2">
	<path class="st0" d="M128,9.1c0-0.5,0-0.9-0.1-1.4c-0.7-4.3-4.6-7.7-9.4-7.7C100.3,0.1,82.2,0,64,0C50.1,0,36.2,0,22.3,0
		c-4.4,0-8.8,0-13.2,0C3.9,0.1,0,4.1,0,9.3c0,36.5,0,72.9,0,109.4c0,0.9,0.1,1.8,0.4,2.7c1.2,4.1,4.6,6.6,9.2,6.6
		c36.3,0,72.5,0,108.8,0c0.3,0,0.6,0,1,0c4.8-0.2,8.7-4.2,8.7-9.1C128,82.3,128,45.7,128,9.1L128,9.1z M38.1,78.5
		c0,9.7,0,19.5,0,29.2c0,1.6,0,1.6-1.6,1.6c-5.4,0-10.9,0-16.3,0c-1,0-1.5-0.2-1.5-1.4c0-19.5,0-39.1,0-58.7c0-1.1,0.3-1.4,1.4-1.4
		c5.5,0,11,0,16.5,0c1.1,0,1.4,0.3,1.4,1.4c0,4.9,0,9.7,0,14.6S38.1,73.6,38.1,78.5L38.1,78.5z M28.4,39.6c-6.2,0-11.1-4.9-11.1-11
		c0-6.2,4.9-11.2,11.1-11.2s11.1,5,11.1,11.2C39.5,34.7,34.6,39.6,28.4,39.6L28.4,39.6z M107.8,109.3c-5.4-0.1-10.9-0.1-16.3,0
		c-1.2,0-1.6-0.4-1.6-1.6c0-10.1,0.1-20.1,0-30.2c0-2.6-0.2-5.2-0.8-7.7c-1-4.3-3.9-6.4-8.3-6.5c-1.4,0-2.9,0-4.3,0.4
		c-4.4,1.1-6.3,4.5-7.1,8.6c-0.3,2-0.5,4-0.5,6.1c-0.1,9.8,0,19.6,0,29.3c0,1.2-0.3,1.6-1.5,1.6c-5.4-0.1-10.9-0.1-16.3,0
		c-1.2,0-1.5-0.4-1.5-1.6c0-19.4,0-38.9,0-58.3c0-1.2,0.3-1.6,1.5-1.6c5.2,0.1,10.5,0.1,15.7,0c1.1,0,1.4,0.4,1.4,1.4
		c-0.1,2.2,0,4.4,0,6.9c3-4.7,6.8-7.8,11.9-9.1c6.1-1.6,12.2-1.1,18,1.5s8.6,7.7,9.9,13.6c1,4.3,1.2,8.7,1.2,13.2
		c0,10.8,0,21.6,0,32.5C109.3,108.9,109,109.3,107.8,109.3L107.8,109.3z"/>
</g>
</svg>
